<?xml version="1.0" encoding="utf-8"?>
<!-- Generator: Adobe Illustrator 28.3.0, SVG Export Plug-In . SVG Version: 6.00 Build 0)  -->
<svg version="1.1" id="logo" xmlns="http://www.w3.org/2000/svg" xmlns:xlink="http://www.w3.org/1999/xlink" x="0px" y="0px"
	 viewBox="0 0 88.25 53.27" style="enable-background:new 0 0 88.25 53.27;" xml:space="preserve">
<path style="fill:#d4f7da; stroke-width:0px;" id="MOUNSTEIN_LOGO" d="M9.48,53.27h-8.7c-0.25,0-0.47-0.19-0.5-0.44L0,50.57c-0.02-0.14,0.03-0.29,0.12-0.4
	c0.1-0.11,0.24-0.17,0.38-0.17l5.88,0.12l0.3-4.55L1.46,45.3c-0.27-0.01-0.48-0.24-0.47-0.51l0.12-6.88c0-0.26,0.21-0.48,0.47-0.49
	l8.34-0.43c0.15-0.02,0.3,0.05,0.4,0.16c0.1,0.11,0.15,0.26,0.12,0.41l-0.34,2.25c-0.03,0.21-0.2,0.38-0.41,0.42l-5.32,0.91
	l-0.05,0.97l6.01,0.07c0.14,0,0.27,0.06,0.36,0.16s0.14,0.24,0.13,0.38L9.98,52.81C9.96,53.07,9.74,53.27,9.48,53.27z M1.22,52.27
	h7.8l0.77-9.09l-5.99-0.07c-0.14,0-0.27-0.06-0.36-0.16c-0.09-0.1-0.14-0.23-0.13-0.37l0.1-1.89c0.01-0.23,0.18-0.43,0.42-0.47
	l5.35-0.92l0.19-1.29L2.1,38.39L2,44.32l5.25,0.29c0.13,0.01,0.26,0.07,0.35,0.17c0.09,0.1,0.13,0.23,0.12,0.36l-0.36,5.53
	c-0.02,0.27-0.27,0.46-0.51,0.47l-5.78-0.12L1.22,52.27z M19.61,52.13h-3.15c-0.14,0-0.27-0.06-0.36-0.15
	c-0.09-0.1-0.14-0.23-0.14-0.37l0.53-11.29h-3.65c-0.14,0-0.27-0.06-0.37-0.16c-0.09-0.1-0.14-0.24-0.13-0.38l0.27-3.35
	c0.02-0.25,0.22-0.44,0.46-0.46l12.32-0.86c0.16-0.01,0.31,0.05,0.41,0.17s0.15,0.27,0.12,0.43l-0.67,3.44
	c-0.04,0.21-0.21,0.37-0.43,0.4l-4.17,0.51l-0.54,11.6C20.1,51.92,19.88,52.13,19.61,52.13z M16.98,51.13h2.15l0.54-11.54
	c0.01-0.24,0.2-0.44,0.44-0.47l4.23-0.52l0.48-2.44l-11.24,0.78l-0.19,2.38h3.63c0.14,0,0.27,0.06,0.36,0.15
	c0.09,0.1,0.14,0.23,0.14,0.37L16.98,51.13z M27.69,52.13c-0.14,0-0.27-0.06-0.36-0.16c-0.1-0.1-0.15-0.25-0.13-0.39l1.49-16.02
	c0.02-0.25,0.22-0.44,0.47-0.45l9.44-0.58c0.15-0.01,0.29,0.05,0.39,0.15c0.1,0.11,0.15,0.25,0.14,0.4l-0.25,2.46
	c-0.02,0.22-0.19,0.41-0.42,0.44l-5.79,0.95l-0.33,3.62l5.2-0.13c0.15,0,0.28,0.05,0.37,0.16s0.15,0.24,0.14,0.38l-0.14,1.88
	c-0.02,0.24-0.2,0.43-0.44,0.46l-5.61,0.72l-0.17,2.14l6.49,0.19c0.27,0.01,0.48,0.23,0.48,0.5v2.47c0,0.27-0.21,0.49-0.49,0.5
	L27.7,52.13C27.7,52.13,27.69,52.13,27.69,52.13z M29.64,36.08l-1.4,15.03l9.42-0.28v-1.5l-6.54-0.2c-0.14,0-0.27-0.06-0.36-0.17
	c-0.09-0.1-0.14-0.24-0.13-0.37l0.25-3.07c0.02-0.24,0.2-0.42,0.44-0.46l5.6-0.72L37,43.43l-5.21,0.13c-0.15,0-0.28-0.05-0.38-0.16
	c-0.1-0.1-0.15-0.25-0.13-0.39l0.42-4.56c0.02-0.23,0.19-0.41,0.42-0.45l5.79-0.95l0.15-1.49L29.64,36.08z M43.61,51.56
	c-0.13,0-0.26-0.05-0.36-0.15c-0.1-0.11-0.16-0.25-0.14-0.4l1.66-15.61c0.02-0.23,0.21-0.42,0.44-0.44l2.63-0.32
	c0.15-0.02,0.3,0.03,0.41,0.14c0.11,0.11,0.16,0.25,0.15,0.4l-1.46,15.68c-0.02,0.24-0.21,0.43-0.45,0.45l-2.83,0.25
	C43.64,51.56,43.62,51.56,43.61,51.56z M45.72,35.9l-1.55,14.61l1.81-0.16l1.36-14.65L45.72,35.9z M23.42,15.52
	c-0.05-0.09-0.19-0.36-7.52,0.69c-0.03,0-0.07,0.02-0.09,0.05l-3.78,5.49l-0.92-6.59c-0.01-0.07-0.07-0.12-0.14-0.11l-9.09,0.84
	c-0.06,0.01-0.11,0.06-0.11,0.12L1.24,33.66c0,0,0,0.01,0,0.01c-0.02,0.05-0.01,0.1,0.03,0.13l0.01,0.01
	c0.02,0.02,0.06,0.04,0.09,0.04c0.02,0,0.03,0,0.05-0.01c0,0,0.01,0,0.01-0.01l4.89-0.41c0.06-0.01,0.11-0.06,0.11-0.12l0.43-7.91
	l2.79,4.31c0.03,0.04,0.07,0.07,0.12,0.06l4.47-0.52c0.04,0,0.07-0.03,0.09-0.06l2.57-4.23l0.31,8.38c0,0.03,0.02,0.07,0.04,0.09
	c0.03,0.02,0.06,0.04,0.09,0.03l3.81-0.37c0.06,0,0.11-0.05,0.11-0.11c0.71-6.7,1.87-16.83,2.12-17.28
	C23.45,15.63,23.44,15.56,23.42,15.52z M56.94,14.8c-0.13-0.14-0.31-0.2-0.5-0.18l-4.37,0.5c-0.27,0.03-0.48,0.24-0.52,0.5
	L49.9,26.14c-0.09,0.24-0.54,1.22-1.8,1.12c-0.36-0.02-0.62-0.14-0.8-0.35c-0.3-0.36-0.32-0.95-0.31-1.11l1.77-10.89
	c0.03-0.18-0.03-0.37-0.15-0.5c-0.12-0.14-0.31-0.21-0.49-0.19l-4.28,0.31c-0.28,0.02-0.5,0.23-0.55,0.5l-1.65,10.13
	c-0.01,0.06-0.01,0.12,0,0.18c-0.06,0.64-0.19,3.05,1.27,5c1.01,1.34,2.53,2.17,4.53,2.45c0.44,0.06,0.86,0.09,1.25,0.09
	c5.56,0,6.53-5.79,6.54-5.85L57.1,15.3C57.13,15.12,57.07,14.93,56.94,14.8z M33.07,14.35L33.07,14.35
	c-4.45-0.41-8.49,3.33-8.99,8.34c-0.26,2.59,0.48,5.17,2.03,7.05c1.33,1.62,3.15,2.61,5.13,2.8c0.23,0.02,0.46,0.03,0.69,0.03
	c4.18,0,7.83-3.61,8.31-8.37c0.26-2.59-0.48-5.17-2.03-7.05C36.88,15.53,35.05,14.54,33.07,14.35z M35.3,23.73
	c-0.21,2.01-1.78,3.52-3.52,3.36l0,0c-0.75-0.07-1.44-0.45-1.96-1.07c-0.62-0.76-0.92-1.8-0.81-2.86c0.2-1.92,1.64-3.38,3.27-3.38
	c0.08,0,0.17,0,0.25,0.01c0.75,0.07,1.45,0.45,1.96,1.07C35.11,21.63,35.41,22.67,35.3,23.73z M87.91,11.35
	c-0.72,2.73-1.14,5.53-1.65,8.31c-0.56,3.08-0.98,6.19-1.66,9.24c-0.38,1.71-0.05,3.42-0.4,5.09c-0.12,0.59-0.33,1.16-0.41,1.75
	c-0.08,0.62,0.06,1.29-0.11,1.88c-0.71,2.45-0.58,5-0.92,7.49c-0.07,0.48-0.1,0.97-0.19,1.45c-0.11,0.62-0.3,1.18-1.04,1.34
	c-0.45,0.09-0.89,0.25-1.33,0.39c-0.17,0.06-0.47,0.14-0.47,0.23c-0.13,1.66-1.45,0.7-2.19,0.98c-0.68,0.25-1.44,0.27-2.33,0.41
	c-0.21-0.22-1.98-0.6-2.44-0.31c-0.14,0.09-0.83,0.54-0.88,0.44c-0.24,0.13-0.48,0.26-0.49,0.26c-0.66-0.24-1.12-0.49-1.61-0.58
	c-0.99-0.17-1.99-0.31-3-0.36c-0.85-0.04-1.7,0.07-2.55,0.1c-0.16,0-0.33-0.08-0.58-0.15c0.54-0.28,1.78-1.13,1.84-1.21
	c0.54-0.04,0.96-0.08,1.38-0.11c0-0.09-0.59-0.95-0.52-0.97c-0.06-0.42-0.09-0.84-0.17-1.24c-0.11-0.5-0.27-1-0.39-1.5
	c-0.26-1.07-0.49-2.15-0.76-3.22c-0.58-2.31-1.17-4.62-1.77-6.92c-0.1-0.38-0.19-0.79-0.41-1.1c-0.14-0.22-0.49-0.3-0.74-0.44
	c-0.12,0.23-0.31,0.46-0.34,0.7c-0.1,0.88-0.12,1.77-0.21,2.65c-0.17,1.73-0.36,3.45-0.56,5.18c-0.26,2.24-2.52,8.11-3.01,8.07
	l0.01-0.04c-0.63-0.05-1.16-0.17-1.59,0.55c-0.16,0.27-0.86,0.28-1.32,0.28c-0.44,0-0.87-0.18-1.19-0.25
	c-0.79-0.07-1.41-0.13-2.03-0.18c-0.12,0-0.26,0.07-0.36,0.03c-0.23-0.08-0.45-0.2-0.67-0.31c0.19-0.15,0.37-0.32,0.59-0.43
	c0.46-0.24,0.93-0.47,1.4-0.66c0.86-0.35,0.78-1.13,0.89-1.85c0.2-1.24,0.48-2.46,0.69-3.7c0.23-1.36,0.42-2.72,0.63-4.09
	c0.21-1.44,0.42-2.88,0.62-4.32c0.1-0.7,0.4-2.04,0.53-2.65c0.84-4.05,1.7-8.1,2.53-12.15c0.37-1.78,0.67-3.57,1.08-5.34
	c0.26-1.12,0.68-2.2,1.05-3.36c0.25,0.08,0.43,0.14,0.66,0.21c0.16-0.43,0.39,0.24,0.45,1c0.02,0.28,0.27,0.54,0.41,0.81
	c0.19-0.21,0.48-0.4,0.57-0.65c0.62-1.71,1.16-3.46,1.83-5.16c0.31-0.8,0.85-1.52,1.29-2.27h0.31c0.14,0.68,0.43,1.37,0.4,2.05
	c-0.05,1.25-0.02,2.46,0.58,3.59c0.07,0.13,0.1,0.3,0.08,0.44c-0.26,1.7-0.5,3.41-0.82,5.1c-0.2,1.04-0.47,2.41-0.26,3.17
	c0.47,1.66,0.98,3.3,1.43,4.96c0.53,1.92,0.98,3.87,1.53,5.79c0.3,1.04,1.11,2.9,0.9,2.9c-0.01,0.07-0.04,0.13-0.03,0.18
	c0.61,2.12,1.12,4.27,1.86,6.35c0.52,1.46,1.35,2.8,2.01,4.21c0.15,0.32,0.18,0.7,0.31,1.03c0.07,0.17,0.22,0.39,0.37,0.42
	c0.16,0.03,0.45-0.09,0.51-0.22c0.12-0.27,0.13-0.6,0.15-0.9c0.12-1.55,0.2-3.11,0.33-4.66c0.18-2.09,0.34-4.19,0.59-6.27
	c0.2-1.71,0.55-3.4,0.77-5.11c0.22-1.68,0.41-3.36,0.53-5.04c0.08-1.02,0.11-2.89,0.22-2.78c0.07-0.02,0.13-0.04,0.2-0.06
	c-0.16-0.82-0.32-1.64-0.46-2.34c0.25-0.39,0.57-0.75,0.75-1.18c0.32-0.78,0.57-1.58,0.81-2.38c0.19-0.64,0.33-1.3,0.46-1.96
	c0.07-0.32,0.06-0.65,0.09-0.98c0.09-0.06,0.18-0.12,0.28-0.17c0.18,0.31,0.36,0.62,0.43,0.76c0.7-0.5,1.39-0.87,1.91-1.39
	c0.43-0.43,0.73-1.03,0.96-1.6c0.42-1.05,0.7-2.16,1.11-3.21c0.32-0.82,0.84-1.56,1.13-2.39c0.26-0.74,0.34-1.55,0.52-2.33
	C86.08,0.43,86.21,0.22,86.3,0h0.33c0.04,0.45,0.07,0.91,0.12,1.36c0.04,0.31,0.12,0.62,0.21,1.05C86.9,2.6,86.75,2.94,86.7,3.29
	c-0.14,1.06-0.24,2.13-0.17,3.3c0.2-0.24,0.38-0.49,0.59-0.71c0.2-0.21,0.44-0.38,0.66-0.56c0.14,0.29,0.39,0.57,0.4,0.86
	C88.25,7.91,88.38,9.6,87.91,11.35z"/>
</svg>
