<?xml version="1.0" encoding="UTF-8"?>
<svg xmlns="http://www.w3.org/2000/svg" viewBox="0 0 88.282 53.325">
    <defs>
        <style>
            .d {
                stroke-width: 0px;
                fill: #d7e0ff;
            }
        </style>
    </defs>
    <g>
        <path class="d"
            d="M10.338,42.245l-6.011-.078.055-.968,5.31-.911c.212-.037.377-.205.41-.418l.341-2.255c.022-.148-.023-.3-.124-.411-.101-.111-.248-.182-.396-.163l-8.341.426c-.263.013-.47.228-.475.491l-.112,6.887c-.004.269.205.493.474.507l5.223.278-.299,4.553-5.881-.121c-.158-.003-.284.057-.381.165-.097.107-.143.252-.125.396l.276,2.264c.03.251.243.439.496.439h0l8.702-.009c.26,0,.476-.199.498-.458l.853-10.071c.012-.138-.035-.275-.127-.378-.093-.103-.225-.162-.364-.164ZM9.019,52.316l-7.8.009-.152-1.252,5.783.119c.256-.002.491-.201.509-.467l.364-5.535c.009-.134-.036-.266-.125-.365s-.214-.16-.348-.167l-5.248-.279.097-5.938,7.263-.371-.196,1.293-5.346.917c-.229.04-.402.232-.415.465l-.106,1.887c-.008.137.041.27.133.369.093.1.223.157.359.159l5.996.078-.769,9.078Z" />
        <path class="d"
            d="M25.392,35.166l-12.318.854c-.247.018-.444.213-.464.459l-.269,3.352c-.011.14.037.276.131.379.094.103.228.161.367.161h3.646l-.529,11.287c-.006.137.043.27.138.368.094.1.225.155.362.155h3.149c.267,0,.487-.21.5-.477l.543-11.594,4.175-.51c.215-.026.389-.188.43-.401l.663-3.439c.03-.152-.014-.31-.116-.426-.103-.117-.248-.181-.409-.168ZM24.342,38.652l-4.233.517c-.242.029-.427.229-.439.473l-.541,11.539h-2.148l.529-11.287c.006-.137-.043-.27-.138-.368-.094-.1-.225-.155-.362-.155h-3.629l.191-2.383,11.24-.778-.471,2.443Z" />
        <path class="d"
            d="M38.585,34.583l-9.436.583c-.246.016-.444.207-.467.453l-1.489,16.016c-.013.143.036.283.133.388.095.102.227.158.365.158h.015l10.472-.31c.271-.008.485-.229.485-.5v-2.47c0-.271-.215-.491-.485-.5l-6.498-.196.178-2.136,5.61-.725c.236-.03.417-.223.435-.46l.135-1.883c.01-.141-.04-.279-.137-.382-.098-.102-.248-.152-.375-.154l-5.201.134.333-3.62,5.794-.946c.224-.036.395-.219.417-.443l.244-2.458c.015-.146-.036-.291-.138-.396-.102-.106-.248-.166-.391-.152ZM37.912,37.108l-5.797.947c-.225.036-.396.221-.417.447l-.419,4.565c-.013.143.036.283.133.388.098.104.252.161.378.158l5.212-.135-.066.926-5.605.724c-.234.03-.415.22-.434.454l-.255,3.063c-.012.137.034.272.125.375s.221.163.358.167l6.54.198v1.499l-9.421.278,1.397-15.026,8.422-.521-.148,1.491Z" />
        <path class="d"
            d="M47.842,34.683l-2.636.317c-.231.027-.413.212-.438.443l-1.659,15.617c-.016.148.036.297.141.403.094.096.223.149.356.149.015,0,.03,0,.045-.002l2.83-.255c.24-.021.431-.212.453-.451l1.466-15.68c.014-.15-.041-.3-.149-.405-.107-.104-.26-.157-.408-.138ZM45.977,50.398l-1.809.163,1.553-14.615,1.625-.196-1.369,14.648Z" />
        <path class="d"
            d="M1.355,33.893h.011l4.953-.42c.062-.006.111-.056.114-.118l.426-7.907,2.791,4.309c.026.039.076.067.12.056l4.473-.523c.038-.004.072-.026.092-.059l2.572-4.225.319,8.383c.001.034.017.066.043.089.025.023.056.038.094.03l3.805-.367c.059-.005.106-.052.112-.11.715-6.701,1.873-16.836,2.121-17.285.055-.062.048-.13.024-.174-.049-.092-.198-.362-7.521.684-.035.005-.065.024-.085.053l-3.78,5.486-.931-6.594c-.008-.066-.069-.123-.135-.106l-9.093.841c-.062.005-.111.058-.113.12l-.538,17.71c0,.036.013.07.039.095.023.022.054.034.086.034Z" />
        <path class="d"
            d="M55.264,27.063l1.875-11.729c.024-.154-.024-.312-.133-.425-.107-.112-.257-.167-.418-.151l-4.366.495c-.224.025-.402.197-.438.42l-1.64,10.497c-.019.054-.468,1.338-1.917,1.232-.39-.026-.674-.152-.871-.384-.387-.455-.328-1.186-.329-1.186l1.773-10.892c.025-.15-.021-.305-.124-.418-.104-.112-.257-.178-.405-.161l-4.275.312c-.23.018-.42.19-.457.419l-1.647,10.132s0,.005,0,.007c-.017.118-.405,2.9,1.234,5.092.988,1.322,2.487,2.133,4.457,2.411.436.062.847.091,1.237.091,5.475,0,6.436-5.702,6.445-5.763Z" />
        <path class="d"
            d="M33.7,14.5h0c-4.218-.409-8.03,3.296-8.509,8.254-.231,2.386.336,4.709,1.597,6.54,1.279,1.859,3.116,2.992,5.173,3.191.215.021.43.031.644.031,1.832,0,3.603-.758,5.045-2.172,1.588-1.556,2.59-3.727,2.82-6.113.479-4.958-2.558-9.323-6.77-9.731ZM35.903,23.791c-.2,2.066-1.734,3.629-3.437,3.451-.804-.077-1.529-.529-2.041-1.273-.53-.771-.768-1.756-.67-2.773.099-1.018.521-1.938,1.189-2.593.579-.567,1.28-.871,2-.871.082,0,.165.004.248.013.804.077,1.529.529,2.041,1.273.53.771.768,1.756.67,2.773Z" />
        <path class="d"
            d="M88.209,6.177c-.012-.291-.263-.573-.404-.859-.222.186-.461.356-.663.561-.215.218-.397.469-.593.706-.073-1.173.028-2.239.169-3.299.046-.349.198-.684.257-.877-.087-.425-.169-.733-.209-1.046-.058-.452-.085-.909-.125-1.363-.108.003-.217.006-.325.009-.092.215-.218.423-.27.647-.179.775-.251,1.585-.516,2.328-.294.825-.807,1.57-1.129,2.388-.415,1.054-.695,2.161-1.112,3.213-.228.575-.532,1.171-.959,1.603-.524.529-1.211.897-1.914,1.395-.078-.137-.256-.447-.434-.757l-.276.174c-.029.327-.028.659-.093.979-.134.657-.275,1.315-.465,1.958-.238.805-.491,1.609-.809,2.384-.175.428-.497.796-.746,1.182.136.693.297,1.516.458,2.338-.066.022-.131.043-.197.065-.113-.105-.145,1.763-.222,2.781-.127,1.685-.313,3.367-.533,5.042-.224,1.709-.568,3.403-.77,5.114-.246,2.084-.413,4.178-.589,6.27-.131,1.552-.217,3.108-.332,4.661-.023.305-.038.628-.153.902-.055.132-.354.255-.509.223-.147-.03-.299-.25-.365-.42-.131-.333-.16-.71-.311-1.03-.665-1.407-1.493-2.754-2.011-4.211-.737-2.075-1.254-4.227-1.862-6.348-.014-.05.016-.113.027-.182.218,0-.594-1.855-.895-2.899-.553-1.916-1.002-3.862-1.529-5.786-.454-1.659-.964-3.304-1.435-4.959-.218-.766.061-2.128.257-3.172.316-1.692.558-3.398.819-5.101.022-.141-.013-.314-.08-.442-.593-1.137-.627-2.34-.576-3.593.028-.679-.255-1.37-.398-2.056-.102.003-.205.005-.307.008-.436.755-.972,1.47-1.286,2.272-.665,1.697-1.202,3.445-1.827,5.159-.092.252-.373.435-.567.649-.145-.271-.392-.534-.414-.815-.058-.754-.296-1.421-.451-.995-.226-.071-.41-.129-.658-.206-.371,1.164-.791,2.245-1.054,3.363-.415,1.766-.712,3.558-1.08,5.335-.84,4.051-1.697,8.099-2.535,12.151-.127.613-.432,1.956-.53,2.652-.203,1.442-.409,2.884-.622,4.324-.201,1.363-.395,2.727-.626,4.085-.21,1.237-.493,2.462-.691,3.7-.115.72-.031,1.492-.895,1.846-.478.196-.946.423-1.404.663-.213.111-.391.287-.585.434.222.106.438.231.669.31.105.036.243-.041.364-.032.622.05,1.243.111,2.03.184.323.074.757.249,1.193.251.455.003,1.162-.013,1.319-.279.426-.724.961-.598,1.587-.55.492.038,2.748-5.83,3.012-8.07.203-1.724.386-3.451.558-5.179.088-.882.109-1.77.208-2.65.027-.244.222-.47.34-.704.254.142.597.224.74.439.211.318.307.724.406,1.105.599,2.305,1.192,4.612,1.772,6.921.269,1.07.502,2.15.761,3.223.121.501.285.993.392,1.497.087.409.118.829.174,1.244-.073.022.52.881.516.971-.419.033-.839.066-1.376.108-.063.072-1.298.928-1.842,1.206.253.066.42.15.584.145.85-.025,1.702-.137,2.548-.096,1.003.048,2.006.184,2.996.355.488.084.947.333,1.609.577.01-.006.246-.132.485-.261.047.102.739-.349.881-.439.462-.293,2.236.094,2.442.311.891-.146,1.657-.16,2.334-.413.736-.275,2.061.681,2.189-.978.007-.09.303-.177.475-.232.44-.141.881-.292,1.332-.387.741-.155.93-.72,1.041-1.337.086-.477.121-.964.187-1.446.341-2.493.212-5.04.922-7.495.17-.587.028-1.257.112-1.877.081-.59.285-1.162.41-1.748.356-1.676.022-3.388.404-5.093.682-3.052,1.1-6.162,1.664-9.241.509-2.78.927-5.589,1.651-8.314.465-1.751.34-3.446.267-5.174Z" />
    </g>
</svg>